<svg width="80" height="80" viewBox="0 0 80 80" fill="none" xmlns="http://www.w3.org/2000/svg">
<path d="M39.9993 0C17.9085 0 0 17.9089 0 39.9993C0 62.089 17.9085 80 39.9993 80C62.0901 80 80 62.0897 80 39.9993C79.9993 17.9089 62.0901 0 39.9993 0ZM53.6598 25.5866C53.6598 25.9684 53.3506 26.2782 52.9681 26.2782H43.2306V31.5117H52.9675C53.3499 31.5117 53.6591 31.8216 53.6591 32.2033V41.9393C53.6591 42.3218 53.3499 42.6309 52.9675 42.6309H43.9223V63.9965C43.9223 64.379 43.6131 64.6882 43.2306 64.6882H34.0284C33.646 64.6882 33.3368 64.379 33.3368 63.9965V42.6316H27.0312C26.6487 42.6316 26.3395 42.3225 26.3395 41.94V32.204C26.3395 31.8223 26.6487 31.5124 27.0312 31.5124H33.3368V27.5646C33.3368 27.5079 33.3437 27.4533 33.3562 27.4007C33.3617 21.7771 34.5644 15.3436 43.7777 15.3146C43.7978 15.3132 43.8192 15.3118 43.84 15.3118H52.9675C53.3499 15.3118 53.6591 15.6217 53.6591 16.0035V25.5866H53.6598Z" fill="black"/>
</svg>
