<svg width="129" height="41" viewBox="0 0 129 41" fill="none" xmlns="http://www.w3.org/2000/svg">
<path d="M6.27294 0.0116124C3.61536 0.270397 1.43512 1.55524 0.583663 3.36673C0.22244 4.13855 0.0504284 4.76962 0.00742553 5.45517C-0.100082 7.37109 0.966388 9.35056 2.77681 10.5809C3.52936 11.094 4.26901 11.3936 6.83197 12.2335C9.47235 13.1007 10.0658 13.3141 11.2398 13.818C13.0846 14.608 14.6241 15.5432 16.0862 16.7691C16.4775 17.0959 17.0709 17.6862 17.9611 18.6396C18.6793 19.4023 19.3071 20.0833 19.3501 20.1469L19.4318 20.2695L18.3051 21.4726C16.9634 22.8982 16.2754 23.5156 15.153 24.3056C13.3641 25.5632 11.5322 26.4167 8.48758 27.4155C4.69043 28.6595 3.97659 28.9274 3.27564 29.3814C2.53599 29.8626 1.76194 30.6118 1.32331 31.2655C0.52776 32.4505 0.192338 33.8579 0.403052 35.1337C0.471856 35.5514 0.712672 36.3232 0.884683 36.6864C1.71894 38.4298 3.71427 39.6783 6.22993 40.0324C6.74597 40.1051 8.16506 40.1051 8.61659 40.0324C10.6635 39.7055 12.0138 39.129 13.248 38.0439C14.594 36.8635 15.3035 35.2744 15.1358 33.808C15.0498 33.0906 14.68 32.0146 14.293 31.379C14.0005 30.8932 13.4716 30.3848 12.732 29.8808C12.5556 29.7628 12.4309 29.6493 12.4524 29.6311C12.4696 29.6084 12.7191 29.4359 12.9986 29.2497C13.6565 28.8048 14.1769 28.5415 16.2711 27.5881C19.1007 26.2987 20.8681 25.4134 22.528 24.4509C22.9666 24.1966 23.4483 23.9197 23.6031 23.8334L23.8826 23.6745L26.9788 25.5314C33.2185 29.277 42.0814 34.5753 42.4383 34.7705C43.4102 35.3062 44.4766 35.674 45.7065 35.9055C46.171 35.9918 46.4032 36.0054 47.4266 36.0054C48.4716 36.0099 48.678 35.9963 49.1898 35.9055C49.9208 35.7738 50.768 35.5423 51.2969 35.3289C51.714 35.1609 52.6601 34.6842 52.6945 34.6252C52.7074 34.607 52.4666 34.4391 52.1656 34.2529C39.6302 26.4894 30.763 20.9913 30.0664 20.5464C29.6192 20.2649 29.5547 20.2059 29.6149 20.1605C29.6536 20.1333 32.5219 18.3445 35.9879 16.1925C41.6127 12.6921 50.7723 6.98972 52.4021 5.97274C52.4788 5.92498 52.5521 5.87816 52.6195 5.83409C52.8851 5.66038 52.8799 5.44438 52.6042 5.28719V5.28719C50.4712 4.07499 47.9814 3.8162 45.2464 4.52445C44.5325 4.7106 43.5564 5.06926 42.9113 5.38253C42.6146 5.52327 40.1979 6.93978 37.536 8.5288C34.8741 10.1133 30.72 12.5922 28.3033 14.0314L23.9041 16.6465L23.1429 16.2106C21.3325 15.1709 18.2965 13.6273 15.7766 12.4605C13.7941 11.5389 13.5189 11.4027 12.8223 10.9577C12.461 10.7262 12.1643 10.531 12.1643 10.5174C12.1643 10.5037 12.2546 10.4356 12.3707 10.3585C12.6546 10.1723 13.7898 8.96919 14.0134 8.61507C14.4177 7.97946 14.7144 7.11684 14.7875 6.36319C14.9208 5.0057 14.3704 3.58012 13.2652 2.41786C12.0396 1.13301 10.4399 0.3612 8.46608 0.097875C7.92855 0.0297738 6.63846 -0.0247083 6.27294 0.0116124ZM8.38008 2.72658C9.76477 3.06255 10.7581 3.8162 11.2398 4.89674C11.4462 5.35529 11.5236 5.70488 11.5279 6.18158C11.5322 7.06236 11.257 7.78423 10.6635 8.44254C10.0486 9.1281 9.24443 9.4913 8.20806 9.5594C7.1588 9.6275 6.37614 9.48222 5.55479 9.06454C4.94845 8.76035 4.53132 8.44708 4.08839 7.95676C3.18103 6.94432 2.90152 5.78206 3.31864 4.74238C3.44335 4.42457 3.85188 3.8162 4.09699 3.58012C4.52702 3.16697 5.19357 2.84008 5.90741 2.69026C6.41055 2.58584 6.52665 2.5813 7.262 2.59946C7.76944 2.61308 8.03605 2.64032 8.38008 2.72658ZM9.27883 30.6299C10.7624 31.0113 11.773 32.228 11.8504 33.7172C11.8805 34.2892 11.7945 34.7069 11.5365 35.2608C11.3645 35.624 11.2699 35.7557 10.9215 36.128C10.3367 36.7454 9.76907 37.0768 8.87461 37.3265C8.25537 37.4991 7.83394 37.5445 7.09859 37.5172C6.38474 37.4945 6.03212 37.4219 5.44298 37.1858C4.59153 36.8408 3.76587 35.9327 3.51216 35.0656C3.37885 34.6025 3.41325 33.9669 3.59816 33.4675C4.1443 31.9919 5.7139 30.7888 7.41251 30.5437C7.88124 30.4756 8.85741 30.521 9.27883 30.6299Z" fill="black"/>
<line x1="53" y1="20.5" x2="129" y2="20.5" stroke="black" stroke-dasharray="2 2"/>
</svg>
