<svg width="178" height="50" viewBox="0 0 178 50" fill="none" xmlns="http://www.w3.org/2000/svg">
<path d="M75.2811 17.216C74.2851 17.216 73.3191 17.084 72.3831 16.82C71.4591 16.544 70.7151 16.19 70.1511 15.758L71.1411 13.562C71.6811 13.958 72.3231 14.276 73.0671 14.516C73.8111 14.756 74.5551 14.876 75.2991 14.876C76.1271 14.876 76.7391 14.756 77.1351 14.516C77.5311 14.264 77.7291 13.934 77.7291 13.526C77.7291 13.226 77.6091 12.98 77.3691 12.788C77.1411 12.584 76.8411 12.422 76.4691 12.302C76.1091 12.182 75.6171 12.05 74.9931 11.906C74.0331 11.678 73.2471 11.45 72.6351 11.222C72.0231 10.994 71.4951 10.628 71.0511 10.124C70.6191 9.62 70.4031 8.948 70.4031 8.108C70.4031 7.376 70.6011 6.716 70.9971 6.128C71.3931 5.528 71.9871 5.054 72.7791 4.706C73.5831 4.358 74.5611 4.184 75.7131 4.184C76.5171 4.184 77.3031 4.28 78.0711 4.472C78.8391 4.664 79.5111 4.94 80.0871 5.3L79.1871 7.514C78.0231 6.854 76.8591 6.524 75.6951 6.524C74.8791 6.524 74.2731 6.656 73.8771 6.92C73.4931 7.184 73.3011 7.532 73.3011 7.964C73.3011 8.396 73.5231 8.72 73.9671 8.936C74.4231 9.14 75.1131 9.344 76.0371 9.548C76.9971 9.776 77.7831 10.004 78.3951 10.232C79.0071 10.46 79.5291 10.82 79.9611 11.312C80.4051 11.804 80.6271 12.47 80.6271 13.31C80.6271 14.03 80.4231 14.69 80.0151 15.29C79.6191 15.878 79.0191 16.346 78.2151 16.694C77.4111 17.042 76.4331 17.216 75.2811 17.216ZM87.2996 14.894C87.8036 14.894 88.2476 14.822 88.6316 14.678C89.0276 14.522 89.3936 14.282 89.7296 13.958L91.2236 15.578C90.3116 16.622 88.9796 17.144 87.2276 17.144C86.1356 17.144 85.1696 16.934 84.3296 16.514C83.4896 16.082 82.8416 15.488 82.3856 14.732C81.9296 13.976 81.7016 13.118 81.7016 12.158C81.7016 11.21 81.9236 10.358 82.3676 9.602C82.8236 8.834 83.4416 8.24 84.2216 7.82C85.0136 7.388 85.9016 7.172 86.8856 7.172C87.8096 7.172 88.6496 7.37 89.4056 7.766C90.1616 8.15 90.7616 8.714 91.2056 9.458C91.6616 10.19 91.8896 11.06 91.8896 12.068L84.7256 13.454C84.9296 13.934 85.2476 14.294 85.6796 14.534C86.1236 14.774 86.6636 14.894 87.2996 14.894ZM86.8856 9.296C86.1776 9.296 85.6016 9.524 85.1576 9.98C84.7136 10.436 84.4796 11.066 84.4556 11.87L89.1716 10.952C89.0396 10.448 88.7696 10.046 88.3616 9.746C87.9536 9.446 87.4616 9.296 86.8856 9.296ZM96.4591 8.594C96.7951 8.126 97.2451 7.772 97.8091 7.532C98.3851 7.292 99.0451 7.172 99.7891 7.172V9.764C99.4771 9.74 99.2671 9.728 99.1591 9.728C98.3551 9.728 97.7251 9.956 97.2691 10.412C96.8131 10.856 96.5851 11.528 96.5851 12.428V17H93.7771V7.316H96.4591V8.594ZM111.361 7.316V15.38C111.361 17.156 110.899 18.476 109.975 19.34C109.051 20.204 107.701 20.636 105.925 20.636C104.989 20.636 104.101 20.522 103.261 20.294C102.421 20.066 101.725 19.736 101.173 19.304L102.289 17.288C102.697 17.624 103.213 17.888 103.837 18.08C104.461 18.284 105.085 18.386 105.709 18.386C106.681 18.386 107.395 18.164 107.851 17.72C108.319 17.288 108.553 16.628 108.553 15.74V15.326C107.821 16.13 106.801 16.532 105.493 16.532C104.605 16.532 103.789 16.34 103.045 15.956C102.313 15.56 101.731 15.008 101.299 14.3C100.867 13.592 100.651 12.776 100.651 11.852C100.651 10.928 100.867 10.112 101.299 9.404C101.731 8.696 102.313 8.15 103.045 7.766C103.789 7.37 104.605 7.172 105.493 7.172C106.897 7.172 107.965 7.634 108.697 8.558V7.316H111.361ZM106.051 14.228C106.795 14.228 107.401 14.012 107.869 13.58C108.349 13.136 108.589 12.56 108.589 11.852C108.589 11.144 108.349 10.574 107.869 10.142C107.401 9.698 106.795 9.476 106.051 9.476C105.307 9.476 104.695 9.698 104.215 10.142C103.735 10.574 103.495 11.144 103.495 11.852C103.495 12.56 103.735 13.136 104.215 13.58C104.695 14.012 105.307 14.228 106.051 14.228ZM118.852 14.894C119.356 14.894 119.8 14.822 120.184 14.678C120.58 14.522 120.946 14.282 121.282 13.958L122.776 15.578C121.864 16.622 120.532 17.144 118.78 17.144C117.688 17.144 116.722 16.934 115.882 16.514C115.042 16.082 114.394 15.488 113.938 14.732C113.482 13.976 113.254 13.118 113.254 12.158C113.254 11.21 113.476 10.358 113.92 9.602C114.376 8.834 114.994 8.24 115.774 7.82C116.566 7.388 117.454 7.172 118.438 7.172C119.362 7.172 120.202 7.37 120.958 7.766C121.714 8.15 122.314 8.714 122.758 9.458C123.214 10.19 123.442 11.06 123.442 12.068L116.278 13.454C116.482 13.934 116.8 14.294 117.232 14.534C117.676 14.774 118.216 14.894 118.852 14.894ZM118.438 9.296C117.73 9.296 117.154 9.524 116.71 9.98C116.266 10.436 116.032 11.066 116.008 11.87L120.724 10.952C120.592 10.448 120.322 10.046 119.914 9.746C119.506 9.446 119.014 9.296 118.438 9.296ZM135.086 7.316V15.38C135.086 17.156 134.636 18.476 133.736 19.34C132.836 20.204 131.528 20.636 129.812 20.636C128.9 20.636 128.036 20.522 127.22 20.294C126.416 20.066 125.738 19.736 125.186 19.304L126.302 17.288C126.71 17.624 127.208 17.888 127.796 18.08C128.384 18.272 128.978 18.368 129.578 18.368C130.514 18.368 131.198 18.152 131.63 17.72C132.062 17.288 132.278 16.628 132.278 15.74V15.416C131.918 15.776 131.492 16.052 131 16.244C130.508 16.436 129.98 16.532 129.416 16.532C128.144 16.532 127.136 16.172 126.392 15.452C125.648 14.72 125.276 13.628 125.276 12.176V7.316H128.084V11.762C128.084 13.334 128.738 14.12 130.046 14.12C130.718 14.12 131.258 13.904 131.666 13.472C132.074 13.028 132.278 12.374 132.278 11.51V7.316H135.086Z" fill="white"/>
<path d="M81.4814 33.8547L79.7894 35.6187V38.8047H76.8914V26.2047H79.7894V32.0907L85.3694 26.2047H88.6094L83.3894 31.8207L88.9154 38.8047H85.5134L81.4814 33.8547ZM94.2213 38.9487C93.2013 38.9487 92.2833 38.7387 91.4673 38.3187C90.6633 37.8867 90.0333 37.2927 89.5773 36.5367C89.1213 35.7807 88.8933 34.9227 88.8933 33.9627C88.8933 33.0027 89.1213 32.1447 89.5773 31.3887C90.0333 30.6327 90.6633 30.0447 91.4673 29.6247C92.2833 29.1927 93.2013 28.9767 94.2213 28.9767C95.2413 28.9767 96.1533 29.1927 96.9573 29.6247C97.7613 30.0447 98.3913 30.6327 98.8473 31.3887C99.3033 32.1447 99.5313 33.0027 99.5313 33.9627C99.5313 34.9227 99.3033 35.7807 98.8473 36.5367C98.3913 37.2927 97.7613 37.8867 96.9573 38.3187C96.1533 38.7387 95.2413 38.9487 94.2213 38.9487ZM94.2213 36.6447C94.9413 36.6447 95.5293 36.4047 95.9853 35.9247C96.4533 35.4327 96.6873 34.7787 96.6873 33.9627C96.6873 33.1467 96.4533 32.4987 95.9853 32.0187C95.5293 31.5267 94.9413 31.2807 94.2213 31.2807C93.5013 31.2807 92.9073 31.5267 92.4393 32.0187C91.9713 32.4987 91.7373 33.1467 91.7373 33.9627C91.7373 34.7787 91.9713 35.4327 92.4393 35.9247C92.9073 36.4047 93.5013 36.6447 94.2213 36.6447ZM107.24 38.3367C106.964 38.5407 106.622 38.6967 106.214 38.8047C105.818 38.9007 105.404 38.9487 104.972 38.9487C103.808 38.9487 102.914 38.6547 102.29 38.0667C101.666 37.4787 101.354 36.6147 101.354 35.4747V26.9787H104.162V29.3367H106.556V31.4967H104.162V35.4387C104.162 35.8467 104.264 36.1647 104.468 36.3927C104.672 36.6087 104.966 36.7167 105.35 36.7167C105.782 36.7167 106.166 36.5967 106.502 36.3567L107.24 38.3367ZM112.3 38.9487C111.208 38.9487 110.356 38.6607 109.744 38.0847C109.132 37.4967 108.826 36.6687 108.826 35.6007V25.4487H111.634V35.4387C111.634 35.8467 111.736 36.1647 111.94 36.3927C112.156 36.6087 112.456 36.7167 112.84 36.7167C112.984 36.7167 113.128 36.6987 113.272 36.6627C113.428 36.6267 113.548 36.5847 113.632 36.5367L113.758 38.7147C113.29 38.8707 112.804 38.9487 112.3 38.9487ZM115.137 29.1207H117.945V38.8047H115.137V29.1207ZM116.541 27.7707C116.025 27.7707 115.605 27.6207 115.281 27.3207C114.957 27.0207 114.795 26.6487 114.795 26.2047C114.795 25.7607 114.957 25.3887 115.281 25.0887C115.605 24.7887 116.025 24.6387 116.541 24.6387C117.057 24.6387 117.477 24.7827 117.801 25.0707C118.125 25.3587 118.287 25.7187 118.287 26.1507C118.287 26.6187 118.125 27.0087 117.801 27.3207C117.477 27.6207 117.057 27.7707 116.541 27.7707ZM130.379 29.1207V38.8047H127.697V37.6887C127.001 38.5287 125.993 38.9487 124.673 38.9487C123.761 38.9487 122.933 38.7447 122.189 38.3367C121.457 37.9287 120.881 37.3467 120.461 36.5907C120.041 35.8347 119.831 34.9587 119.831 33.9627C119.831 32.9667 120.041 32.0907 120.461 31.3347C120.881 30.5787 121.457 29.9967 122.189 29.5887C122.933 29.1807 123.761 28.9767 124.673 28.9767C125.909 28.9767 126.875 29.3667 127.571 30.1467V29.1207H130.379ZM125.159 36.6447C125.867 36.6447 126.455 36.4047 126.923 35.9247C127.391 35.4327 127.625 34.7787 127.625 33.9627C127.625 33.1467 127.391 32.4987 126.923 32.0187C126.455 31.5267 125.867 31.2807 125.159 31.2807C124.439 31.2807 123.845 31.5267 123.377 32.0187C122.909 32.4987 122.675 33.1467 122.675 33.9627C122.675 34.7787 122.909 35.4327 123.377 35.9247C123.845 36.4047 124.439 36.6447 125.159 36.6447ZM135.661 30.3987C135.997 29.9307 136.447 29.5767 137.011 29.3367C137.587 29.0967 138.247 28.9767 138.991 28.9767V31.5687C138.679 31.5447 138.469 31.5327 138.361 31.5327C137.557 31.5327 136.927 31.7607 136.471 32.2167C136.015 32.6607 135.787 33.3327 135.787 34.2327V38.8047H132.979V29.1207H135.661V30.3987Z" fill="white"/>
<path d="M7.82206 0.0133871C4.70509 0.311572 2.14795 1.79203 1.14931 3.87933C0.725644 4.76865 0.523898 5.4958 0.473461 6.28573C0.34737 8.49334 1.5982 10.7742 3.72157 12.1919C4.60421 12.783 5.47172 13.1283 8.47774 14.0961C11.5745 15.0953 12.2706 15.3411 13.6475 15.9218C15.8112 16.832 17.6168 17.9097 19.3317 19.3221C19.7907 19.6988 20.4867 20.3789 21.5307 21.4775C22.373 22.3563 23.1094 23.141 23.1598 23.2142L23.2556 23.3555L21.9342 24.7418C20.3606 26.3844 19.5536 27.0959 18.2372 28.0061C16.139 29.4552 13.9905 30.4387 10.4195 31.5896C5.966 33.0229 5.12875 33.3316 4.30664 33.8547C3.43913 34.4092 2.53127 35.2724 2.01682 36.0257C1.08374 37.3911 0.690338 39.0128 0.937477 40.4828C1.01818 40.9641 1.30062 41.8534 1.50237 42.2719C2.48084 44.2807 4.82109 45.7193 7.77163 46.1274C8.37687 46.2111 10.0413 46.2111 10.5709 46.1274C12.9716 45.7507 14.5553 45.0863 16.0029 43.8361C17.5815 42.4759 18.4137 40.645 18.217 38.9553C18.1162 38.1287 17.6824 36.8889 17.2285 36.1565C16.8855 35.5968 16.2651 35.0108 15.3976 34.4302C15.1908 34.2942 15.0446 34.1634 15.0698 34.1424C15.09 34.1163 15.3825 33.9175 15.7103 33.703C16.482 33.1904 17.0923 32.8869 19.5486 31.7884C22.8673 30.3027 24.9402 29.2826 26.8871 28.1735C27.4015 27.8806 27.9664 27.5615 28.148 27.4621L28.4758 27.279L32.1073 29.4186C39.4256 33.7344 49.8206 39.8393 50.2392 40.0643C51.3791 40.6816 52.6299 41.1053 54.0724 41.3721C54.6171 41.4715 54.8894 41.4872 56.0898 41.4872C57.3154 41.4924 57.5575 41.4767 58.1577 41.3721C59.0151 41.2204 60.0087 40.9536 60.6291 40.7077C61.1183 40.5142 62.228 39.9649 62.2683 39.8969C62.2834 39.876 62.001 39.6824 61.6479 39.4679C46.9457 30.5224 36.5457 24.1873 35.7286 23.6746C35.2041 23.3503 35.1284 23.2823 35.199 23.2299C35.2444 23.1986 38.6085 21.1374 42.6737 18.6578C49.2708 14.6244 60.0138 8.05391 61.9253 6.8821C62.0152 6.82715 62.101 6.7733 62.18 6.7226C62.4915 6.5225 62.4854 6.27309 62.1624 6.09217V6.09217C59.6607 4.69541 56.7405 4.39723 53.5327 5.21331C52.6954 5.42779 51.5505 5.84107 50.794 6.20203C50.446 6.3642 47.6114 7.99636 44.4894 9.82732C41.3674 11.653 36.4952 14.5093 33.6607 16.1677L28.501 19.1809L27.6083 18.6787C25.4849 17.4807 21.9241 15.7021 18.9685 14.3576C16.6434 13.2957 16.3206 13.1387 15.5035 12.6261C15.0799 12.3593 14.7319 12.1343 14.7319 12.1186C14.7319 12.1029 14.8378 12.0245 14.974 11.9355C15.3068 11.7211 16.6384 10.3348 16.9006 9.92672C17.3747 9.19433 17.7228 8.20039 17.8085 7.33199C17.9649 5.76783 17.3193 4.1252 16.023 2.78598C14.5856 1.30552 12.7094 0.416199 10.3943 0.112783C9.76387 0.0343136 8.25077 -0.0284634 7.82206 0.0133871ZM10.2935 3.14171C11.9175 3.52883 13.0826 4.39722 13.6475 5.64227C13.8896 6.17064 13.9804 6.57345 13.9854 7.12274C13.9905 8.13761 13.6677 8.96939 12.9716 9.72793C12.2504 10.5179 11.3072 10.9364 10.0917 11.0148C8.86106 11.0933 7.94311 10.9259 6.97977 10.4446C6.26862 10.0941 5.77938 9.73316 5.25989 9.16818C4.19568 8.0016 3.86784 6.66238 4.35707 5.46441C4.50334 5.09822 4.98249 4.39722 5.26998 4.12519C5.77434 3.64915 6.55611 3.27249 7.39335 3.09986C7.98346 2.97954 8.11964 2.97431 8.9821 2.99523C9.57726 3.01093 9.88996 3.04231 10.2935 3.14171ZM11.3476 35.2933C13.0876 35.7328 14.2729 37.1348 14.3637 38.8506C14.399 39.5098 14.2981 39.9911 13.9955 40.6293C13.7938 41.0478 13.6828 41.1995 13.2743 41.6285C12.5883 42.3399 11.9226 42.7218 10.8735 43.0095C10.1472 43.2083 9.65291 43.2606 8.79045 43.2292C7.9532 43.2031 7.53962 43.1194 6.84864 42.8473C5.85 42.4498 4.88161 41.4035 4.58404 40.4043C4.42769 39.8707 4.46803 39.1383 4.68491 38.5629C5.32546 36.8627 7.16639 35.4764 9.15863 35.1939C9.70839 35.1155 10.8533 35.1678 11.3476 35.2933Z" fill="white"/>
</svg>
