<svg width="139" height="47" viewBox="0 0 139 47" fill="none" xmlns="http://www.w3.org/2000/svg">
<path d="M75.2811 17.216C74.2851 17.216 73.3191 17.084 72.3831 16.82C71.4591 16.544 70.7151 16.19 70.1511 15.758L71.1411 13.562C71.6811 13.958 72.3231 14.276 73.0671 14.516C73.8111 14.756 74.5551 14.876 75.2991 14.876C76.1271 14.876 76.7391 14.756 77.1351 14.516C77.5311 14.264 77.7291 13.934 77.7291 13.526C77.7291 13.226 77.6091 12.98 77.3691 12.788C77.1411 12.584 76.8411 12.422 76.4691 12.302C76.1091 12.182 75.6171 12.05 74.9931 11.906C74.0331 11.678 73.2471 11.45 72.6351 11.222C72.0231 10.994 71.4951 10.628 71.0511 10.124C70.6191 9.62 70.4031 8.948 70.4031 8.108C70.4031 7.376 70.6011 6.716 70.9971 6.128C71.3931 5.528 71.9871 5.054 72.7791 4.706C73.5831 4.358 74.5611 4.184 75.7131 4.184C76.5171 4.184 77.3031 4.28 78.0711 4.472C78.8391 4.664 79.5111 4.94 80.0871 5.3L79.1871 7.514C78.0231 6.854 76.8591 6.524 75.6951 6.524C74.8791 6.524 74.2731 6.656 73.8771 6.92C73.4931 7.184 73.3011 7.532 73.3011 7.964C73.3011 8.396 73.5231 8.72 73.9671 8.936C74.4231 9.14 75.1131 9.344 76.0371 9.548C76.9971 9.776 77.7831 10.004 78.3951 10.232C79.0071 10.46 79.5291 10.82 79.9611 11.312C80.4051 11.804 80.6271 12.47 80.6271 13.31C80.6271 14.03 80.4231 14.69 80.0151 15.29C79.6191 15.878 79.0191 16.346 78.2151 16.694C77.4111 17.042 76.4331 17.216 75.2811 17.216ZM87.2996 14.894C87.8036 14.894 88.2476 14.822 88.6316 14.678C89.0276 14.522 89.3936 14.282 89.7296 13.958L91.2236 15.578C90.3116 16.622 88.9796 17.144 87.2276 17.144C86.1356 17.144 85.1696 16.934 84.3296 16.514C83.4896 16.082 82.8416 15.488 82.3856 14.732C81.9296 13.976 81.7016 13.118 81.7016 12.158C81.7016 11.21 81.9236 10.358 82.3676 9.602C82.8236 8.834 83.4416 8.24 84.2216 7.82C85.0136 7.388 85.9016 7.172 86.8856 7.172C87.8096 7.172 88.6496 7.37 89.4056 7.766C90.1616 8.15 90.7616 8.714 91.2056 9.458C91.6616 10.19 91.8896 11.06 91.8896 12.068L84.7256 13.454C84.9296 13.934 85.2476 14.294 85.6796 14.534C86.1236 14.774 86.6636 14.894 87.2996 14.894ZM86.8856 9.296C86.1776 9.296 85.6016 9.524 85.1576 9.98C84.7136 10.436 84.4796 11.066 84.4556 11.87L89.1716 10.952C89.0396 10.448 88.7696 10.046 88.3616 9.746C87.9536 9.446 87.4616 9.296 86.8856 9.296ZM96.4591 8.594C96.7951 8.126 97.2451 7.772 97.8091 7.532C98.3851 7.292 99.0451 7.172 99.7891 7.172V9.764C99.4771 9.74 99.2671 9.728 99.1591 9.728C98.3551 9.728 97.7251 9.956 97.2691 10.412C96.8131 10.856 96.5851 11.528 96.5851 12.428V17H93.7771V7.316H96.4591V8.594ZM107.345 7.172C108.545 7.172 109.511 7.532 110.243 8.252C110.987 8.972 111.359 10.04 111.359 11.456V17H108.551V11.888C108.551 11.12 108.383 10.55 108.047 10.178C107.711 9.794 107.225 9.602 106.589 9.602C105.881 9.602 105.317 9.824 104.897 10.268C104.477 10.7 104.267 11.348 104.267 12.212V17H101.459V3.644H104.267V8.324C104.639 7.952 105.089 7.67 105.617 7.478C106.145 7.274 106.721 7.172 107.345 7.172ZM113.904 7.316H116.712V17H113.904V7.316ZM115.308 5.966C114.792 5.966 114.372 5.816 114.048 5.516C113.724 5.216 113.562 4.844 113.562 4.4C113.562 3.956 113.724 3.584 114.048 3.284C114.372 2.984 114.792 2.834 115.308 2.834C115.824 2.834 116.244 2.978 116.568 3.266C116.892 3.554 117.054 3.914 117.054 4.346C117.054 4.814 116.892 5.204 116.568 5.516C116.244 5.816 115.824 5.966 115.308 5.966ZM119.318 7.316H122.126V17H119.318V7.316ZM120.722 5.966C120.206 5.966 119.786 5.816 119.462 5.516C119.138 5.216 118.976 4.844 118.976 4.4C118.976 3.956 119.138 3.584 119.462 3.284C119.786 2.984 120.206 2.834 120.722 2.834C121.238 2.834 121.658 2.978 121.982 3.266C122.306 3.554 122.468 3.914 122.468 4.346C122.468 4.814 122.306 5.204 121.982 5.516C121.658 5.816 121.238 5.966 120.722 5.966Z" fill="white"/>
<path d="M79.9696 33.8547L78.2776 35.6187V38.8047H75.3796V26.2047H78.2776V32.0907L83.8576 26.2047H87.0976L81.8776 31.8207L87.4036 38.8047H84.0016L79.9696 33.8547ZM92.7095 38.9487C91.6895 38.9487 90.7715 38.7387 89.9555 38.3187C89.1515 37.8867 88.5215 37.2927 88.0655 36.5367C87.6095 35.7807 87.3815 34.9227 87.3815 33.9627C87.3815 33.0027 87.6095 32.1447 88.0655 31.3887C88.5215 30.6327 89.1515 30.0447 89.9555 29.6247C90.7715 29.1927 91.6895 28.9767 92.7095 28.9767C93.7295 28.9767 94.6415 29.1927 95.4455 29.6247C96.2495 30.0447 96.8795 30.6327 97.3355 31.3887C97.7915 32.1447 98.0195 33.0027 98.0195 33.9627C98.0195 34.9227 97.7915 35.7807 97.3355 36.5367C96.8795 37.2927 96.2495 37.8867 95.4455 38.3187C94.6415 38.7387 93.7295 38.9487 92.7095 38.9487ZM92.7095 36.6447C93.4295 36.6447 94.0175 36.4047 94.4735 35.9247C94.9415 35.4327 95.1755 34.7787 95.1755 33.9627C95.1755 33.1467 94.9415 32.4987 94.4735 32.0187C94.0175 31.5267 93.4295 31.2807 92.7095 31.2807C91.9895 31.2807 91.3955 31.5267 90.9275 32.0187C90.4595 32.4987 90.2255 33.1467 90.2255 33.9627C90.2255 34.7787 90.4595 35.4327 90.9275 35.9247C91.3955 36.4047 91.9895 36.6447 92.7095 36.6447ZM105.728 38.3367C105.452 38.5407 105.11 38.6967 104.702 38.8047C104.306 38.9007 103.892 38.9487 103.46 38.9487C102.296 38.9487 101.402 38.6547 100.778 38.0667C100.154 37.4787 99.8424 36.6147 99.8424 35.4747V26.9787H102.65V29.3367H105.044V31.4967H102.65V35.4387C102.65 35.8467 102.752 36.1647 102.956 36.3927C103.16 36.6087 103.454 36.7167 103.838 36.7167C104.27 36.7167 104.654 36.5967 104.99 36.3567L105.728 38.3367ZM110.788 38.9487C109.696 38.9487 108.844 38.6607 108.232 38.0847C107.62 37.4967 107.314 36.6687 107.314 35.6007V25.4487H110.122V35.4387C110.122 35.8467 110.224 36.1647 110.428 36.3927C110.644 36.6087 110.944 36.7167 111.328 36.7167C111.472 36.7167 111.616 36.6987 111.76 36.6627C111.916 36.6267 112.036 36.5847 112.12 36.5367L112.246 38.7147C111.778 38.8707 111.292 38.9487 110.788 38.9487ZM113.625 29.1207H116.433V38.8047H113.625V29.1207ZM115.029 27.7707C114.513 27.7707 114.093 27.6207 113.769 27.3207C113.445 27.0207 113.283 26.6487 113.283 26.2047C113.283 25.7607 113.445 25.3887 113.769 25.0887C114.093 24.7887 114.513 24.6387 115.029 24.6387C115.545 24.6387 115.965 24.7827 116.289 25.0707C116.613 25.3587 116.775 25.7187 116.775 26.1507C116.775 26.6187 116.613 27.0087 116.289 27.3207C115.965 27.6207 115.545 27.7707 115.029 27.7707ZM128.867 29.1207V38.8047H126.185V37.6887C125.489 38.5287 124.481 38.9487 123.161 38.9487C122.249 38.9487 121.421 38.7447 120.677 38.3367C119.945 37.9287 119.369 37.3467 118.949 36.5907C118.529 35.8347 118.319 34.9587 118.319 33.9627C118.319 32.9667 118.529 32.0907 118.949 31.3347C119.369 30.5787 119.945 29.9967 120.677 29.5887C121.421 29.1807 122.249 28.9767 123.161 28.9767C124.397 28.9767 125.363 29.3667 126.059 30.1467V29.1207H128.867ZM123.647 36.6447C124.355 36.6447 124.943 36.4047 125.411 35.9247C125.879 35.4327 126.113 34.7787 126.113 33.9627C126.113 33.1467 125.879 32.4987 125.411 32.0187C124.943 31.5267 124.355 31.2807 123.647 31.2807C122.927 31.2807 122.333 31.5267 121.865 32.0187C121.397 32.4987 121.163 33.1467 121.163 33.9627C121.163 34.7787 121.397 35.4327 121.865 35.9247C122.333 36.4047 122.927 36.6447 123.647 36.6447ZM134.149 30.3987C134.485 29.9307 134.935 29.5767 135.499 29.3367C136.075 29.0967 136.735 28.9767 137.479 28.9767V31.5687C137.167 31.5447 136.957 31.5327 136.849 31.5327C136.045 31.5327 135.415 31.7607 134.959 32.2167C134.503 32.6607 134.275 33.3327 134.275 34.2327V38.8047H131.467V29.1207H134.149V30.3987Z" fill="white"/>
<path d="M7.82206 0.0133871C4.70509 0.311572 2.14795 1.79203 1.14931 3.87933C0.725644 4.76865 0.523898 5.4958 0.473461 6.28573C0.34737 8.49334 1.5982 10.7742 3.72157 12.1919C4.60421 12.783 5.47172 13.1283 8.47774 14.0961C11.5745 15.0953 12.2706 15.3411 13.6475 15.9218C15.8112 16.832 17.6168 17.9097 19.3317 19.3221C19.7907 19.6988 20.4867 20.3789 21.5307 21.4775C22.373 22.3563 23.1094 23.141 23.1598 23.2142L23.2556 23.3555L21.9342 24.7418C20.3606 26.3844 19.5536 27.0959 18.2372 28.0061C16.139 29.4552 13.9905 30.4387 10.4195 31.5896C5.966 33.0229 5.12875 33.3316 4.30664 33.8547C3.43913 34.4092 2.53127 35.2724 2.01682 36.0257C1.08374 37.3911 0.690338 39.0128 0.937477 40.4828C1.01818 40.9641 1.30062 41.8534 1.50237 42.2719C2.48084 44.2807 4.82109 45.7193 7.77163 46.1274C8.37687 46.2111 10.0413 46.2111 10.5709 46.1274C12.9716 45.7507 14.5553 45.0863 16.0029 43.8361C17.5815 42.4759 18.4137 40.645 18.217 38.9553C18.1162 38.1287 17.6824 36.8889 17.2285 36.1565C16.8855 35.5968 16.2651 35.0108 15.3976 34.4302C15.1908 34.2942 15.0446 34.1634 15.0698 34.1424C15.09 34.1163 15.3825 33.9175 15.7103 33.703C16.482 33.1904 17.0923 32.8869 19.5486 31.7884C22.8673 30.3027 24.9402 29.2826 26.8871 28.1735C27.4015 27.8806 27.9664 27.5615 28.148 27.4621L28.4758 27.279L32.1073 29.4186C39.4256 33.7344 49.8206 39.8393 50.2392 40.0643C51.3791 40.6816 52.6299 41.1053 54.0724 41.3721C54.6171 41.4715 54.8894 41.4872 56.0898 41.4872C57.3154 41.4924 57.5575 41.4767 58.1577 41.3721C59.0151 41.2204 60.0087 40.9536 60.6291 40.7077C61.1183 40.5142 62.228 39.9649 62.2683 39.8969C62.2834 39.876 62.001 39.6824 61.6479 39.4679C46.9457 30.5224 36.5457 24.1873 35.7286 23.6746C35.2041 23.3503 35.1284 23.2823 35.199 23.2299C35.2444 23.1986 38.6085 21.1374 42.6737 18.6578C49.2708 14.6244 60.0138 8.05391 61.9253 6.8821C62.0152 6.82715 62.101 6.7733 62.18 6.7226C62.4915 6.5225 62.4854 6.27309 62.1624 6.09217V6.09217C59.6607 4.69541 56.7405 4.39723 53.5327 5.21331C52.6954 5.42779 51.5505 5.84107 50.794 6.20203C50.446 6.3642 47.6114 7.99636 44.4894 9.82732C41.3674 11.653 36.4952 14.5093 33.6607 16.1677L28.501 19.1809L27.6083 18.6787C25.4849 17.4807 21.9241 15.7021 18.9685 14.3576C16.6434 13.2957 16.3206 13.1387 15.5035 12.6261C15.0799 12.3593 14.7319 12.1343 14.7319 12.1186C14.7319 12.1029 14.8378 12.0245 14.974 11.9355C15.3068 11.7211 16.6384 10.3348 16.9006 9.92672C17.3747 9.19433 17.7228 8.20039 17.8085 7.33199C17.9649 5.76783 17.3193 4.1252 16.023 2.78598C14.5856 1.30552 12.7094 0.416199 10.3943 0.112783C9.76387 0.0343136 8.25077 -0.0284634 7.82206 0.0133871ZM10.2935 3.14171C11.9175 3.52883 13.0826 4.39722 13.6475 5.64227C13.8896 6.17064 13.9804 6.57345 13.9854 7.12274C13.9905 8.13761 13.6677 8.96939 12.9716 9.72793C12.2504 10.5179 11.3072 10.9364 10.0917 11.0148C8.86106 11.0933 7.94311 10.9259 6.97977 10.4446C6.26862 10.0941 5.77938 9.73316 5.25989 9.16818C4.19568 8.0016 3.86784 6.66238 4.35707 5.46441C4.50334 5.09822 4.98249 4.39722 5.26998 4.12519C5.77434 3.64915 6.55611 3.27249 7.39335 3.09986C7.98346 2.97954 8.11964 2.97431 8.9821 2.99523C9.57726 3.01093 9.88996 3.04231 10.2935 3.14171ZM11.3476 35.2933C13.0876 35.7328 14.2729 37.1348 14.3637 38.8506C14.399 39.5098 14.2981 39.9911 13.9955 40.6293C13.7938 41.0478 13.6828 41.1995 13.2743 41.6285C12.5883 42.3399 11.9226 42.7218 10.8735 43.0095C10.1472 43.2083 9.65291 43.2606 8.79045 43.2292C7.9532 43.2031 7.53962 43.1194 6.84864 42.8473C5.85 42.4498 4.88161 41.4035 4.58404 40.4043C4.42769 39.8707 4.46803 39.1383 4.68491 38.5629C5.32546 36.8627 7.16639 35.4764 9.15863 35.1939C9.70839 35.1155 10.8533 35.1678 11.3476 35.2933Z" fill="white"/>
</svg>
