<svg width="71" height="53" viewBox="0 0 71 53" fill="none" xmlns="http://www.w3.org/2000/svg">
<path d="M8.37183 0.0153473C4.85266 0.357494 1.96558 2.05622 0.838074 4.45125C0.359741 5.47168 0.131963 6.30604 0.0750185 7.21243C-0.0673427 9.74551 1.34488 12.3626 3.74224 13.9893C4.73877 14.6676 5.71822 15.0638 9.11211 16.1743C12.6085 17.3207 13.3943 17.6029 14.9489 18.2691C17.3918 19.3136 19.4304 20.5501 21.3666 22.1708C21.8848 22.603 22.6706 23.3833 23.8493 24.6439C24.8003 25.6523 25.6317 26.5527 25.6886 26.6367L25.7968 26.7988L24.3049 28.3895C22.5282 30.2743 21.6171 31.0906 20.1309 32.1351C17.762 33.7978 15.3361 34.9263 11.3045 36.2468C6.27627 37.8915 5.33099 38.2457 4.4028 38.8459C3.42335 39.4822 2.39835 40.4726 1.81752 41.337C0.764047 42.9037 0.31988 44.7645 0.598908 46.4512C0.690019 47.0034 1.00891 48.0239 1.23669 48.5041C2.34141 50.8091 4.98363 52.4598 8.31488 52.928C8.99822 53.024 10.8774 53.024 11.4753 52.928C14.1859 52.4958 15.9739 51.7335 17.6082 50.2988C19.3906 48.7382 20.3302 46.6373 20.1081 44.6985C19.9942 43.75 19.5045 42.3274 18.992 41.4871C18.6048 40.8448 17.9043 40.1725 16.9249 39.5062C16.6914 39.3502 16.5263 39.2001 16.5547 39.1761C16.5775 39.1461 16.9078 38.918 17.2779 38.6719C18.1492 38.0836 18.8382 37.7355 21.6114 36.4749C25.3584 34.7702 27.6988 33.5997 29.8968 32.3272C30.4777 31.991 31.1155 31.6249 31.3205 31.5108L31.6906 31.3007L35.7906 33.7558C44.0532 38.7079 55.7895 45.7129 56.2621 45.971C57.5491 46.6793 58.9613 47.1655 60.5899 47.4716C61.2049 47.5857 61.5124 47.6037 62.8677 47.6037C64.2514 47.6097 64.5248 47.5917 65.2024 47.4716C66.1705 47.2976 67.2923 46.9914 67.9927 46.7093C68.5451 46.4872 69.7978 45.8569 69.8434 45.7789C69.8605 45.7549 69.5416 45.5328 69.143 45.2867C52.5437 35.0223 40.8017 27.7532 39.8792 27.165C39.287 26.7928 39.2016 26.7148 39.2813 26.6547C39.3325 26.6187 43.1307 24.2537 47.7205 21.4085C55.1688 16.7805 67.298 9.24129 69.4562 7.89672C69.5577 7.83358 69.6548 7.77169 69.7441 7.71343C70.0958 7.48377 70.0889 7.19814 69.7238 6.99033V6.99033C66.8994 5.38764 63.6023 5.0455 59.9806 5.9819C59.0353 6.228 57.7427 6.70221 56.8885 7.11638C56.4956 7.30246 53.2953 9.17526 49.7705 11.2762C46.2456 13.3711 40.7448 16.6485 37.5445 18.5513L31.7191 22.0088L30.7111 21.4325C28.3138 20.0579 24.2935 18.017 20.9566 16.4744C18.3314 15.2559 17.967 15.0758 17.0445 14.4875C16.5661 14.1814 16.1732 13.9233 16.1732 13.9053C16.1732 13.8873 16.2928 13.7972 16.4466 13.6952C16.8224 13.4491 18.3257 11.8584 18.6218 11.3902C19.1571 10.5499 19.55 9.40936 19.6468 8.41294C19.8234 6.61817 19.0945 4.73336 17.631 3.19671C16.0081 1.49798 13.8897 0.477546 11.276 0.129397C10.5642 0.039359 8.85586 -0.0326733 8.37183 0.0153473ZM11.1621 3.60488C12.9957 4.04907 14.3111 5.0455 14.9489 6.47411C15.2222 7.08037 15.3247 7.54257 15.3304 8.17284C15.3361 9.33733 14.9717 10.2917 14.1859 11.1621C13.3716 12.0685 12.3067 12.5487 10.9343 12.6387C9.54488 12.7288 8.5085 12.5367 7.42086 11.9845C6.61794 11.5823 6.06558 11.1681 5.47905 10.5198C4.27752 9.18127 3.90738 7.64461 4.45974 6.27002C4.62488 5.84984 5.16585 5.0455 5.49044 4.73336C6.05988 4.18713 6.94252 3.75495 7.8878 3.55686C8.55405 3.4188 8.7078 3.4128 9.68155 3.43681C10.3535 3.45482 10.7066 3.49083 11.1621 3.60488ZM12.3522 40.4967C14.3168 41.0009 15.655 42.6096 15.7575 44.5784C15.7974 45.3347 15.6835 45.887 15.3418 46.6193C15.1141 47.0995 14.9888 47.2736 14.5275 47.7658C13.7531 48.5821 13.0014 49.0203 11.817 49.3504C10.997 49.5785 10.4389 49.6386 9.46516 49.6025C8.51988 49.5725 8.05294 49.4765 7.2728 49.1644C6.1453 48.7082 5.05197 47.5077 4.71599 46.3612C4.53947 45.7489 4.58502 44.9085 4.82988 44.2483C5.55308 42.2974 7.63155 40.7067 9.88086 40.3826C10.5016 40.2926 11.7942 40.3526 12.3522 40.4967Z" fill="white"/>
</svg>
